<?xml version="1.0" standalone="no"?>
<!DOCTYPE svg PUBLIC "-//W3C//DTD SVG 20010904//EN"
 "http://www.w3.org/TR/2001/REC-SVG-20010904/DTD/svg10.dtd">
<svg version="1.0" xmlns="http://www.w3.org/2000/svg"
 width="700.000000pt" height="700.000000pt" viewBox="0 0 700.000000 700.000000"
 preserveAspectRatio="xMidYMid meet">
<metadata>
Created by potrace 1.14, written by Peter Selinger 2001-2017
</metadata>
<g transform="translate(0.000000,700.000000) scale(0.100000,-0.100000)"
fill="#000000" stroke="none">
<path d="M3305 6994 c-754 -50 -1423 -308 -2010 -778 -129 -102 -409 -382
-511 -511 -438 -548 -687 -1150 -765 -1855 -19 -168 -16 -563 5 -740 124
-1039 675 -1941 1536 -2516 441 -294 913 -474 1460 -555 177 -27 572 -36 772
-20 825 70 1592 427 2176 1011 588 589 943 1353 1013 2178 16 200 7 595 -20
772 -67 452 -200 848 -409 1222 -554 989 -1535 1644 -2657 1773 -131 15 -478
26 -590 19z m430 -324 c565 -48 1049 -213 1510 -516 732 -480 1242 -1261 1384
-2119 36 -215 44 -343 38 -608 -7 -363 -46 -595 -157 -927 -183 -551 -503
-1028 -945 -1409 -493 -425 -1113 -689 -1766 -751 -188 -18 -585 -8 -764 19
-688 106 -1297 413 -1780 896 -495 495 -809 1124 -904 1815 -187 1343 510
2662 1729 3275 501 251 1108 371 1655 325z"/>
<path d="M3587 6493 c-4 -3 -7 -48 -7 -100 l0 -93 -89 0 -88 0 -7 38 c-3 20
-6 63 -6 95 l0 57 -65 0 -65 0 0 -255 0 -255 70 0 70 0 0 105 0 105 90 0 89 0
3 -102 3 -103 34 -3 c19 -2 50 -1 68 3 l33 6 0 217 c0 119 -3 234 -6 255 l-7
37 -57 0 c-31 0 -60 -3 -63 -7z"/>
<path d="M3908 6227 c-75 -117 -140 -220 -143 -229 -5 -13 4 -18 45 -27 76
-16 86 -14 110 24 12 19 25 35 28 35 4 0 44 -7 89 -16 86 -17 93 -23 93 -85 0
-24 5 -27 70 -41 69 -14 70 -14 70 6 0 36 -70 480 -79 502 -7 15 -24 24 -67
32 -31 7 -62 12 -68 12 -6 0 -73 -96 -148 -213z m197 -91 c5 -28 4 -28 -33
-22 -76 14 -75 10 -29 87 l42 69 7 -52 c4 -29 10 -66 13 -82z"/>
<path d="M2738 6402 c-27 -8 -48 -21 -48 -27 0 -6 20 -70 44 -143 25 -73 42
-132 39 -132 -2 0 -75 47 -160 105 l-156 106 -64 -22 c-38 -12 -63 -26 -60
-33 2 -6 35 -105 72 -221 37 -115 71 -219 76 -232 l8 -22 61 20 c33 12 60 26
60 32 0 7 -18 68 -40 137 -22 69 -40 129 -40 133 0 5 71 -40 157 -99 l157
-107 61 20 c53 17 60 22 57 44 -1 13 -35 122 -74 242 -54 162 -76 217 -87 216
-9 0 -37 -8 -63 -17z"/>
<path d="M4455 6347 c-7 -22 -85 -510 -82 -513 2 -2 29 -15 62 -29 l58 -26
109 108 c82 81 108 102 104 83 -6 -24 -36 -256 -36 -272 0 -4 28 -22 61 -39
60 -30 62 -30 79 -12 198 214 342 374 339 377 -10 9 -109 56 -118 56 -6 0 -56
-54 -113 -119 -57 -66 -104 -118 -105 -117 -2 2 6 67 17 146 11 79 20 152 20
162 0 12 -16 26 -45 40 l-45 22 -119 -118 -118 -118 28 144 c16 79 28 152 29
163 0 15 -15 27 -61 47 -42 19 -61 23 -64 15z"/>
<path d="M2118 6156 l-56 -31 114 -220 c62 -121 117 -221 123 -223 14 -5 111
46 111 58 0 13 -219 438 -229 444 -3 2 -32 -10 -63 -28z"/>
<path d="M1882 6039 c-28 -22 -52 -42 -52 -44 0 -3 27 -67 60 -142 33 -75 59
-140 58 -145 -2 -4 -60 31 -131 78 -70 46 -132 84 -138 84 -18 0 -79 -54 -79
-70 1 -8 25 -78 54 -155 29 -77 52 -141 51 -143 -2 -2 -60 39 -130 92 -99 74
-131 93 -144 86 -28 -16 -96 -78 -91 -83 6 -5 399 -279 418 -291 8 -5 32 7 67
34 l54 42 -39 106 c-21 59 -43 120 -49 136 -7 16 -10 31 -7 33 2 2 56 -30 120
-71 64 -42 121 -76 126 -76 4 0 31 18 58 40 l50 39 -95 238 c-52 131 -98 241
-101 245 -4 4 -31 -11 -60 -33z"/>
<path d="M5101 5729 c-178 -210 -171 -194 -99 -251 l39 -30 37 43 c20 24 51
60 69 79 l32 35 -6 -135 -6 -135 64 -52 64 -51 6 66 c4 37 7 113 8 169 1 88 3
102 19 107 9 2 77 15 150 27 73 12 131 26 130 30 -7 16 -113 99 -129 99 -9 0
-65 -11 -125 -25 -60 -13 -109 -23 -110 -22 -1 1 27 36 62 77 l64 75 -48 42
c-26 23 -50 42 -53 43 -4 0 -79 -86 -168 -191z"/>
<path d="M1156 5362 l-109 -136 39 -33 c21 -18 43 -33 48 -33 5 0 23 17 41 37
l32 37 138 -109 c77 -61 146 -115 154 -121 13 -9 24 -2 58 41 l42 52 -154 123
-154 123 22 29 c12 17 27 36 32 44 7 11 2 21 -20 39 -60 50 -52 54 -169 -93z"/>
<path d="M5617 5437 c-47 -29 -77 -72 -77 -113 0 -17 9 -57 20 -90 28 -81 24
-108 -16 -112 -41 -4 -70 32 -80 95 l-7 45 -50 -6 c-28 -4 -55 -10 -60 -13 -5
-3 -6 -23 -3 -45 18 -113 122 -218 215 -218 45 0 95 25 131 66 38 43 40 101 8
191 -19 51 -20 64 -9 77 7 9 20 16 28 16 24 0 63 -51 63 -83 l0 -30 53 7 c28
4 56 11 61 16 14 14 -14 88 -49 135 -66 86 -150 109 -228 62z"/>
<path d="M3347 5263 c-7 -131 -44 -223 -212 -533 -80 -147 -136 -276 -160
-367 -35 -129 -12 -310 54 -441 55 -109 181 -256 202 -235 5 5 2 41 -8 83 -22
103 -22 294 1 380 27 100 82 203 148 275 33 36 66 65 74 65 11 0 14 -16 14
-69 0 -73 18 -174 45 -257 20 -59 87 -202 107 -228 14 -18 16 -18 56 3 23 12
63 35 89 51 26 17 51 30 56 30 12 0 2 -97 -24 -219 -10 -52 -19 -98 -19 -103
0 -39 89 51 180 182 152 221 179 478 77 725 -27 67 -99 186 -111 182 -5 -2
-17 -26 -28 -55 -11 -29 -25 -52 -31 -52 -7 0 -29 53 -50 118 -69 215 -147
346 -265 444 -48 40 -161 108 -179 108 -6 0 -13 -38 -16 -87z"/>
<path d="M1661 4366 c-38 -38 -61 -70 -58 -78 3 -7 398 -415 876 -907 l870
-894 -272 -280 c-586 -601 -617 -635 -617 -662 0 -30 72 -113 105 -121 13 -3
32 -1 43 5 11 6 215 211 453 456 238 245 436 444 440 443 4 -2 194 -196 424
-433 229 -236 428 -441 442 -453 34 -31 75 -24 121 21 39 37 55 71 46 99 -3
10 -203 222 -445 471 -241 248 -438 454 -437 458 2 3 393 407 871 897 540 555
867 899 867 911 0 25 -117 133 -139 129 -10 -2 -408 -405 -887 -897 l-869
-894 -45 50 c-160 177 -1696 1743 -1709 1743 -9 0 -45 -29 -80 -64z"/>
<path d="M5852 2408 c-11 -14 -102 -194 -102 -203 0 -6 56 -35 68 -35 5 0 15
14 22 30 7 17 15 29 19 28 3 -2 57 -29 118 -61 62 -31 116 -57 121 -57 5 0 18
18 31 40 l22 39 -113 57 c-144 72 -141 69 -123 105 20 37 20 36 -15 54 -35 18
-35 18 -48 3z"/>
<path d="M1061 2333 c-45 -22 -60 -61 -53 -140 5 -62 4 -63 -20 -63 -28 0 -48
33 -48 80 0 29 -2 30 -46 30 l-46 0 7 -47 c15 -100 68 -163 137 -163 89 0 124
45 115 145 -5 53 -3 67 8 72 22 8 44 -14 51 -53 6 -32 9 -34 45 -34 36 0 39 2
39 28 0 42 -45 125 -79 145 -36 21 -66 21 -110 0z"/>
<path d="M5670 2085 c-28 -41 -53 -82 -56 -89 -4 -10 39 -44 140 -112 156
-104 155 -103 188 -46 l18 30 -59 38 -59 38 29 42 29 43 -29 20 c-16 12 -33
21 -38 21 -4 0 -20 -18 -34 -41 -25 -39 -26 -40 -47 -22 l-22 18 29 45 c17 24
29 45 28 45 -1 1 -16 11 -34 24 l-32 22 -51 -76z"/>
<path d="M1183 2051 c-140 -101 -166 -147 -127 -224 54 -105 128 -141 207
-101 52 27 207 138 207 149 0 6 -12 25 -27 42 l-28 32 -89 -65 c-116 -84 -148
-91 -179 -42 -21 33 2 64 103 137 l100 72 -27 37 c-15 20 -28 38 -29 40 0 1
-51 -33 -111 -77z"/>
<path d="M5471 1820 l-32 -40 91 -165 c51 -91 95 -165 100 -165 4 0 20 16 35
36 27 35 27 37 11 64 -16 28 -16 29 27 76 41 45 45 47 74 37 29 -11 33 -9 63
29 18 21 30 41 29 42 -6 4 -353 126 -360 126 -3 0 -20 -18 -38 -40z m171 -104
l27 -11 -24 -29 -23 -29 -26 41 c-14 23 -26 44 -26 47 0 7 30 -1 72 -19z"/>
<path d="M1378 1712 c-69 -64 -127 -122 -127 -128 -1 -5 12 -23 29 -39 32 -31
32 -31 96 28 l31 28 -20 -76 -20 -76 38 -39 c22 -22 42 -40 45 -40 4 0 12 38
19 84 l13 84 37 -5 c74 -10 141 58 126 128 -6 26 -120 170 -135 169 -3 -1 -62
-53 -132 -118z m166 -35 c8 -12 8 -22 0 -34 -16 -25 -42 -28 -66 -7 -20 19
-20 19 9 41 31 25 41 25 57 0z"/>
<path d="M1684 1617 c-3 -9 -29 -92 -58 -186 l-53 -170 28 -27 27 -26 174 87
c95 48 175 89 176 91 7 5 -63 63 -77 64 -7 0 -56 -23 -107 -51 -52 -28 -94
-49 -94 -47 0 2 16 51 35 108 38 112 38 113 -17 151 -24 17 -29 18 -34 6z"/>
<path d="M5269 1602 c-14 -9 -50 -38 -79 -64 l-52 -48 117 -130 c64 -72 120
-132 124 -135 5 -2 23 11 41 30 l34 35 -44 45 c-24 25 -40 45 -35 45 6 0 39
-8 75 -18 l65 -19 42 36 c24 19 43 38 43 42 0 4 -30 12 -67 18 -105 18 -101
15 -95 66 4 41 1 48 -31 80 -28 28 -43 35 -73 35 -22 0 -51 -8 -65 -18z m69
-84 c17 -17 15 -53 -3 -68 -13 -11 -20 -9 -40 10 -29 28 -32 45 -7 59 23 14
36 13 50 -1z"/>
<path d="M5065 1441 c-69 -32 -115 -102 -115 -174 0 -55 46 -134 94 -162 47
-27 122 -34 173 -14 31 11 93 67 93 83 0 13 -50 86 -59 86 -4 0 -12 -14 -18
-30 -7 -20 -24 -35 -47 -45 -31 -13 -40 -13 -70 -1 -36 15 -66 59 -66 95 0 12
13 35 29 53 22 25 37 32 65 32 35 0 35 1 21 23 -56 86 -44 80 -100 54z"/>
<path d="M1897 1234 c-68 -101 -95 -149 -88 -157 5 -7 23 -20 40 -30 l30 -17
100 147 101 148 -33 27 c-17 15 -36 27 -42 27 -5 0 -54 -65 -108 -145z"/>
<path d="M2090 1301 c0 -14 -29 -303 -35 -341 -4 -32 -1 -38 26 -54 16 -10 36
-15 44 -12 19 7 295 228 295 236 0 6 -73 50 -83 50 -3 0 -43 -31 -89 -70 -45
-38 -84 -66 -85 -62 -2 4 3 53 10 110 15 111 16 108 -40 136 -37 18 -43 19
-43 7z"/>
<path d="M4803 1259 c-18 -12 -33 -23 -33 -25 0 -2 14 -29 31 -60 17 -30 30
-56 28 -58 -9 -8 -111 -57 -113 -54 -2 2 -17 28 -35 60 l-31 56 -40 -21 c-22
-12 -39 -27 -38 -33 2 -6 39 -79 83 -161 l79 -151 41 20 c22 11 42 22 44 24 2
2 -13 32 -32 68 l-36 64 58 31 58 31 33 -63 c18 -34 34 -63 36 -65 3 -5 84 37
84 44 0 16 -166 314 -174 314 -6 0 -26 -10 -43 -21z"/>
<path d="M2385 964 c-66 -75 -121 -139 -123 -144 -2 -4 18 -16 44 -26 l46 -18
19 25 18 24 58 -21 c55 -19 58 -22 61 -56 3 -32 8 -37 45 -52 24 -9 46 -16 50
-16 4 0 7 87 7 194 l0 194 -47 16 c-26 9 -49 16 -52 15 -3 0 -60 -61 -126
-135z m131 -90 c-4 -11 -11 -12 -33 -2 -15 7 -30 13 -32 15 -2 1 12 21 30 45
l34 42 3 -43 c2 -24 1 -49 -2 -57z"/>
<path d="M4417 1086 c-51 -19 -75 -42 -88 -87 -10 -31 -9 -43 7 -75 24 -49 54
-64 127 -64 44 0 59 -4 64 -17 10 -27 -33 -54 -81 -51 l-41 3 -3 -42 -3 -43
53 0 c96 1 178 60 178 128 0 77 -55 122 -149 122 -59 0 -74 16 -41 42 16 13
32 17 51 13 25 -6 27 -4 31 35 2 23 2 43 -1 46 -9 8 -67 3 -104 -10z"/>
<path d="M2711 840 c-24 -94 -42 -172 -40 -174 2 -2 40 -14 84 -26 44 -12 88
-24 97 -26 13 -4 19 4 27 32 11 39 8 54 -12 54 -7 0 -28 5 -48 10 l-37 10 35
131 c19 72 31 135 26 140 -4 4 -26 11 -48 14 l-40 7 -44 -172z"/>
<path d="M4183 999 l-31 -9 14 -63 c8 -34 19 -78 24 -97 13 -48 12 -104 -2
-118 -15 -15 -70 -16 -86 0 -6 6 -24 65 -39 130 l-28 119 -40 -7 c-22 -3 -44
-9 -48 -13 -9 -9 39 -224 59 -263 35 -68 123 -88 210 -49 90 41 101 89 58 271
-28 118 -27 118 -91 99z"/>
<path d="M3656 913 c-27 -4 -28 -6 -23 -46 3 -23 11 -104 18 -180 l13 -139 75
7 c148 13 191 39 191 117 0 39 -34 88 -60 88 -7 0 -8 6 0 19 17 32 12 86 -11
115 -19 24 -25 26 -97 25 -42 -1 -90 -4 -106 -6z m134 -97 c0 -22 -16 -36 -41
-36 -5 0 -9 14 -9 30 0 25 4 30 25 30 20 0 25 -5 25 -24z m24 -112 c9 -3 16
-16 16 -29 0 -24 -17 -35 -56 -35 -21 0 -24 5 -24 35 0 30 3 35 24 35 13 0 31
-3 40 -6z"/>
<path d="M3233 810 c-40 -16 -56 -77 -30 -111 20 -26 55 -40 82 -33 56 14 73
87 30 129 -25 26 -45 30 -82 15z"/>
</g>
</svg>
