<?xml version="1.0" encoding="UTF-8" standalone="no"?><!DOCTYPE svg PUBLIC "-//W3C//DTD SVG 1.1//EN" "http://www.w3.org/Graphics/SVG/1.1/DTD/svg11.dtd"><svg width="100%" height="100%" viewBox="0 0 1553 1553" version="1.1" xmlns="http://www.w3.org/2000/svg" xmlns:xlink="http://www.w3.org/1999/xlink" xml:space="preserve" xmlns:serif="http://www.serif.com/" style="fill-rule:evenodd;clip-rule:evenodd;stroke-linejoin:round;stroke-miterlimit:2;"><path d="M776.1,0c-428.675,0 -776.1,347.425 -776.1,776.1c0,428.592 347.425,776.017 776.1,776.017c428.592,-0 776.017,-347.425 776.017,-776.017c-0,-428.675 -347.425,-776.1 -776.017,-776.1" style="fill:#ef5342;fill-rule:nonzero;"/><path d="M776.11,71.051c389.337,0 704.929,315.713 704.929,705.05c0,389.338 -315.592,704.929 -704.929,704.929c-389.338,0 -705.05,-315.591 -705.05,-704.929c-0,-389.337 315.712,-705.05 705.05,-705.05" style="fill:#edad54;fill-rule:nonzero;"/><path d="M285.304,367.58l68.541,54.509l-18.17,22.846l-68.538,-54.509l-14.925,18.767l-19.35,-15.388l48.017,-60.379l19.35,15.388l-14.925,18.766Z" style="fill:#4f2e2d;fill-rule:nonzero;"/><path d="M320.452,291.233l60.325,44.684l-26.537,-71.588l18.175,-14.471l63.82,41.896l-30.029,-68.8l23.884,-19.016l43.733,108.725l-23.304,18.554l-57.784,-37.188l23.296,64.646l-23.304,18.554l-96.158,-66.979l23.883,-19.017Z" style="fill:#4f2e2d;fill-rule:nonzero;"/><path d="M509.691,293.655l-51.742,-99.664l25.904,-13.449l51.743,99.664l-25.905,13.449Z" style="fill:#4f2e2d;"/><path d="M552.211,269.548l-34.738,-106.784l27.759,-9.033l72.508,48.612l-21.242,-65.291l27.617,-8.984l34.742,106.788l-27.617,8.983l-72.508,-48.612l21.237,65.291l-27.758,9.03Z" style="fill:#4f2e2d;fill-rule:nonzero;"/><path d="M752.766,156.685l42.142,-0.683l-0.7,-43.333l29.183,-0.475l1.821,112.283l-29.192,0.471l-0.745,-46.308l-42.142,0.679l0.75,46.312l-29.188,0.475l-1.82,-112.283l29.187,-0.471l0.704,43.333Z" style="fill:#4f2e2d;fill-rule:nonzero;"/><path d="M912.086,199.138l-5.087,-39.284l-20.559,33.859l25.646,5.425Zm2.984,23.312l-40.796,-8.629l-10.596,17.7l-30.454,-6.442l65.058,-101.016l31.183,6.595l18.575,118.713l-30.454,-6.446l-2.516,-20.475Z" style="fill:#4f2e2d;fill-rule:nonzero;"/><path d="M1016.57,155.556l-14.325,73.692l53.158,-54.796l20.892,10.167l-10.304,75.646l49.142,-56.75l27.454,13.358l-79.263,86.317l-26.783,-13.034l8.654,-68.166l-48.296,48.879l-26.783,-13.034l19,-115.637l27.454,13.358Z" style="fill:#4f2e2d;fill-rule:nonzero;"/><path d="M1160.76,293.644l57.096,-12.329l27.504,23.296l-68.35,11.779l-1.059,76.596l-28.862,-24.45l2.5,-61.708l-31.475,37.158l-22.275,-18.871l72.587,-85.679l22.275,18.871l-29.941,35.337Z" style="fill:#4f2e2d;fill-rule:nonzero;"/><path d="M1284.2,395.492c-0.004,-4.096 -0.529,-7.763 -1.571,-11.013c-1.046,-3.246 -2.508,-6.025 -4.387,-8.337c-2.379,-2.925 -5.017,-4.75 -7.904,-5.467c-2.892,-0.721 -5.455,-0.171 -7.688,1.646c-1.542,1.254 -2.437,2.75 -2.679,4.487c-0.254,1.742 -0.133,3.659 0.358,5.755c0.492,2.1 1.234,4.308 2.234,6.633c0.995,2.325 1.933,4.662 2.825,7.012c3.554,9.4 4.662,17.488 3.333,24.267c-1.329,6.779 -5.304,12.867 -11.925,18.254c-4.467,3.638 -9.125,6.179 -13.967,7.621c-4.841,1.446 -9.725,1.775 -14.654,0.983c-4.933,-0.783 -9.817,-2.7 -14.658,-5.737c-4.838,-3.038 -9.421,-7.213 -13.746,-12.521c-8.963,-11.012 -13.996,-23.879 -15.1,-38.604l26.15,-5.15c-0.246,5.829 0.246,11 1.479,15.5c1.233,4.504 3.167,8.371 5.8,11.604c3.004,3.7 6.096,5.763 9.258,6.192c3.167,0.429 5.834,-0.229 7.988,-1.988c1.308,-1.066 2.254,-2.216 2.846,-3.466c0.587,-1.246 0.841,-2.738 0.775,-4.471c-0.071,-1.738 -0.463,-3.754 -1.184,-6.05c-0.716,-2.296 -1.654,-5.021 -2.808,-8.175c-1.462,-3.679 -2.775,-7.379 -3.946,-11.096c-1.175,-3.721 -1.725,-7.429 -1.662,-11.129c0.058,-3.7 0.946,-7.367 2.662,-11c1.713,-3.638 4.725,-7.209 9.038,-10.717c4.312,-3.512 8.8,-5.983 13.462,-7.408c4.663,-1.429 9.292,-1.871 13.9,-1.329c4.6,0.545 9.113,2.116 13.542,4.725c4.425,2.608 8.521,6.22 12.279,10.841c3.513,4.309 6.579,9.3 9.208,14.971c2.63,5.667 4.546,11.596 5.746,17.792l-25.004,5.375Z" style="fill:#4f2e2d;fill-rule:nonzero;"/><path d="M258.812,1073.08c0.546,-2.85 0.68,-5.471 0.392,-7.875c-0.292,-2.4 -0.933,-4.534 -1.933,-6.392c-1.263,-2.354 -2.85,-3.979 -4.767,-4.871c-1.912,-0.892 -3.771,-0.854 -5.571,0.113c-1.237,0.666 -2.062,1.583 -2.471,2.762c-0.408,1.179 -0.579,2.529 -0.52,4.05c0.058,1.529 0.279,3.167 0.658,4.921c0.383,1.75 0.725,3.504 1.025,5.262c1.208,7.017 0.892,12.796 -0.946,17.334c-1.837,4.541 -5.425,8.237 -10.758,11.1c-3.6,1.929 -7.179,3.066 -10.742,3.421c-3.567,0.354 -7.008,-0.075 -10.333,-1.284c-3.325,-1.212 -6.467,-3.204 -9.425,-5.971c-2.963,-2.762 -5.588,-6.287 -7.884,-10.566c-4.754,-8.871 -6.525,-18.5 -5.308,-28.896l18.888,-0.063c-0.955,4.021 -1.309,7.688 -1.059,10.984c0.25,3.3 1.079,6.254 2.475,8.858c1.596,2.975 3.467,4.829 5.613,5.554c2.146,0.725 4.087,0.625 5.825,-0.308c1.054,-0.567 1.866,-1.242 2.446,-2.029c0.575,-0.788 0.954,-1.792 1.141,-3.009c0.184,-1.216 0.184,-2.67 -0.008,-4.366c-0.188,-1.696 -0.475,-3.717 -0.854,-6.071c-0.521,-2.754 -0.942,-5.504 -1.254,-8.25c-0.313,-2.746 -0.2,-5.404 0.341,-7.967c0.542,-2.571 1.65,-5 3.334,-7.3c1.679,-2.3 4.258,-4.379 7.733,-6.241c3.475,-1.863 6.929,-2.975 10.367,-3.342c3.437,-0.367 6.72,-0.05 9.85,0.946c3.129,1 6.058,2.7 8.787,5.112c2.729,2.409 5.092,5.475 7.088,9.196c1.862,3.471 3.325,7.358 4.391,11.658c1.067,4.296 1.604,8.684 1.604,13.155l-18.125,0.375Z" style="fill:#4f2e2d;fill-rule:nonzero;"/><path d="M298.597,1098.14l-35.258,25.104c-1.892,1.35 -3.775,2.796 -5.65,4.346c-1.879,1.55 -3.362,3.262 -4.458,5.121c-1.096,1.858 -1.596,3.916 -1.496,6.179c0.1,2.262 1.15,4.8 3.15,7.608c2,2.808 4.042,4.617 6.129,5.421c2.083,0.808 4.192,1.008 6.333,0.612c2.134,-0.4 4.242,-1.229 6.321,-2.495c2.079,-1.267 4.067,-2.571 5.959,-3.917l35.258,-25.104l11.937,16.771l-37.579,26.758c-10.091,7.179 -19.1,10.117 -27.029,8.812c-7.929,-1.312 -15.304,-6.75 -22.121,-16.325c-6.816,-9.575 -9.554,-18.341 -8.216,-26.287c1.337,-7.95 7.05,-15.517 17.141,-22.7l37.579,-26.758l12,16.854Z" style="fill:#4f2e2d;fill-rule:nonzero;"/><path d="M323.048,1186.57l2.662,2.859c2.784,2.979 5.538,4.696 8.259,5.141c2.721,0.442 5.241,-0.412 7.562,-2.57c2.317,-2.159 3.346,-4.613 3.096,-7.359c-0.25,-2.75 -1.771,-5.616 -4.554,-8.6l-2.663,-2.858l-14.362,13.387Zm-1.183,63.292l-17.563,-18.842l8.938,-35.312l-22.396,20.871l-14.104,-15.138l58.225,-54.262l21.954,23.554c3.021,3.246 5.183,6.521 6.487,9.829c1.304,3.304 1.863,6.508 1.679,9.617c-0.187,3.104 -0.987,6.062 -2.404,8.879c-1.421,2.812 -3.362,5.371 -5.837,7.675c-4.429,4.125 -9.013,6.404 -13.759,6.833c-4.745,0.429 -9.55,-0.983 -14.416,-4.241l-6.804,40.537Z" style="fill:#4f2e2d;fill-rule:nonzero;"/><path d="M392.201,1205.56l-16.346,49.492l45.9,-24.771l17.25,14.425l-76.813,39.517l-12.633,-10.563l25.392,-82.525l17.25,14.425Z" style="fill:#4f2e2d;fill-rule:nonzero;"/><path d="M399.281,1312.38l44.783,-65.803l17.105,11.64l-44.783,65.804l-17.105,-11.641Z" style="fill:#4f2e2d;"/><path d="M484.397,1272.91l-6.288,51.741l40.133,-33.325l19.746,10.75l-67.533,53.867l-14.463,-7.875l8.655,-85.908l19.75,10.75Z" style="fill:#4f2e2d;fill-rule:nonzero;"/><path d="M558.505,1363.03l0.921,-28.062l-18.241,21.341l17.32,6.721Zm-0.57,16.65l-27.559,-10.692l-9.429,11.175l-20.571,-7.979l57.034,-63.25l21.062,8.171l-0.542,85.163l-20.566,-7.98l0.571,-14.608Z" style="fill:#4f2e2d;fill-rule:nonzero;"/><path d="M632.183,1333.66l-15.558,60.088l24.012,6.22l-4.392,16.963l-44.045,-11.404l19.954,-77.054l20.029,5.187Z" style="fill:#4f2e2d;fill-rule:nonzero;"/><path d="M726.279,1372.11c2.246,0.188 4.308,0.817 6.2,1.892c1.883,1.075 3.504,2.441 4.85,4.104c1.346,1.667 2.358,3.516 3.037,5.55c0.679,2.033 0.929,4.137 0.75,6.312c-0.191,2.313 -0.791,4.438 -1.8,6.363c-1.004,1.929 -2.308,3.591 -3.904,4.975c-1.6,1.387 -3.433,2.437 -5.504,3.15c-2.071,0.712 -4.263,0.966 -6.579,0.775c-2.246,-0.184 -4.313,-0.792 -6.204,-1.833c-1.892,-1.038 -3.513,-2.359 -4.863,-3.95c-1.35,-1.596 -2.383,-3.43 -3.096,-5.5c-0.712,-2.071 -0.971,-4.263 -0.779,-6.58c0.192,-2.316 0.792,-4.433 1.796,-6.366c1.008,-1.929 2.308,-3.588 3.908,-4.975c1.596,-1.384 3.446,-2.434 5.554,-3.138c2.109,-0.708 4.317,-0.971 6.634,-0.779" style="fill:#4f2e2d;fill-rule:nonzero;"/><path d="M832.724,1412.88l4.517,-0.445c5.179,-0.517 8.825,-1.55 10.933,-3.109c2.108,-1.554 3.021,-3.804 2.725,-6.741c-0.292,-2.942 -1.625,-4.967 -4,-6.075c-2.375,-1.105 -6.15,-1.405 -11.333,-0.888l-4.517,0.454l1.675,16.804Zm-3.204,-32.145l3.787,-0.375c6.442,-0.642 9.405,-3.517 8.896,-8.63c-0.508,-5.112 -3.987,-7.35 -10.429,-6.704l-3.779,0.371l1.525,15.338Zm-23.683,-29.042l30.675,-3.054c7.279,-0.725 12.987,0.475 17.12,3.6c4.13,3.125 6.521,7.979 7.175,14.562c0.4,3.992 0.009,7.371 -1.162,10.142c-1.175,2.767 -3.142,5.208 -5.9,7.325c2.996,0.267 5.583,0.875 7.762,1.825c2.184,0.95 4.005,2.2 5.471,3.754c1.459,1.55 2.575,3.346 3.346,5.396c0.771,2.042 1.271,4.254 1.513,6.633c0.37,3.717 0.045,7.071 -0.963,10.071c-1.012,3 -2.592,5.596 -4.737,7.792c-2.155,2.196 -4.859,3.95 -8.125,5.262c-3.263,1.321 -6.996,2.184 -11.2,2.6l-33.092,3.296l-7.883,-79.204Z" style="fill:#4f2e2d;fill-rule:nonzero;"/><path d="M894.382,1339.79l9.875,42.137c0.529,2.263 1.154,4.554 1.883,6.879c0.725,2.321 1.738,4.346 3.05,6.063c1.3,1.717 3.021,2.962 5.155,3.725c2.129,0.767 4.875,0.754 8.233,-0.033c3.354,-0.788 5.8,-1.992 7.333,-3.617c1.538,-1.621 2.525,-3.5 2.967,-5.625c0.442,-2.129 0.471,-4.396 0.087,-6.8c-0.383,-2.404 -0.837,-4.738 -1.366,-7l-9.875,-42.138l20.041,-4.695l10.521,44.912c2.829,12.063 2.134,21.513 -2.083,28.354c-4.213,6.846 -12.042,11.604 -23.483,14.288c-11.442,2.679 -20.592,1.9 -27.442,-2.354c-6.85,-4.246 -11.688,-12.4 -14.517,-24.463l-10.525,-44.912l20.146,-4.721Z" style="fill:#4f2e2d;fill-rule:nonzero;"/><path d="M1001.67,1328.28c-2.75,-0.925 -5.334,-1.404 -7.75,-1.442c-2.421,-0.033 -4.621,0.317 -6.596,1.059c-2.504,0.937 -4.325,2.295 -5.467,4.075c-1.133,1.775 -1.346,3.625 -0.633,5.533c0.496,1.317 1.296,2.258 2.408,2.821c1.113,0.558 2.429,0.912 3.946,1.062c1.517,0.142 3.175,0.146 4.962,0c1.784,-0.141 3.571,-0.246 5.35,-0.312c7.117,-0.254 12.8,0.833 17.055,3.262c4.25,2.429 7.437,6.475 9.554,12.146c1.433,3.825 2.083,7.521 1.958,11.104c-0.125,3.579 -1.012,6.934 -2.658,10.067c-1.646,3.133 -4.038,5.979 -7.171,8.542c-3.142,2.566 -6.983,4.695 -11.529,6.4c-9.425,3.52 -19.209,3.991 -29.346,1.395l2.462,-18.733c3.863,1.488 7.442,2.329 10.746,2.521c3.304,0.192 6.342,-0.233 9.109,-1.267c3.166,-1.183 5.25,-2.791 6.258,-4.821c1.004,-2.025 1.162,-3.962 0.471,-5.812c-0.421,-1.117 -0.979,-2.017 -1.684,-2.692c-0.704,-0.675 -1.645,-1.187 -2.829,-1.537c-1.179,-0.346 -2.625,-0.538 -4.329,-0.579c-1.704,-0.038 -3.75,-0.025 -6.129,0.041c-2.8,0.146 -5.583,0.192 -8.346,0.134c-2.762,-0.059 -5.379,-0.525 -7.85,-1.405c-2.471,-0.879 -4.733,-2.304 -6.783,-4.279c-2.059,-1.975 -3.775,-4.804 -5.154,-8.5c-1.38,-3.691 -2.021,-7.262 -1.925,-10.716c0.1,-3.459 0.85,-6.667 2.258,-9.638c1.404,-2.967 3.483,-5.642 6.237,-8.025c2.759,-2.383 6.109,-4.312 10.063,-5.792c3.692,-1.379 7.742,-2.312 12.142,-2.795c4.404,-0.48 8.82,-0.425 13.25,0.17l-2.05,18.013Z" style="fill:#4f2e2d;fill-rule:nonzero;"/><path d="M1046.14,1319.39l26.404,-13.975l-14.371,-27.15l18.284,-9.679l37.241,70.342l-18.287,9.683l-15.359,-29.017l-26.404,13.975l15.358,29.017l-18.287,9.679l-37.237,-70.346l18.287,-9.679l14.371,27.15Z" style="fill:#4f2e2d;fill-rule:nonzero;"/><path d="M1148.9,1250.12c-7.283,-1.996 -13.8,-0.958 -19.533,3.113c-2.529,1.791 -4.542,3.912 -6.046,6.35c-1.5,2.446 -2.462,5.012 -2.896,7.687c-0.429,2.679 -0.316,5.425 0.342,8.238c0.654,2.812 1.879,5.479 3.671,8.008c1.833,2.583 3.966,4.65 6.404,6.2c2.437,1.55 5.012,2.567 7.733,3.054c2.721,0.492 5.467,0.442 8.242,-0.15c2.775,-0.583 5.396,-1.758 7.867,-3.508c5.395,-3.825 8.616,-9.563 9.666,-17.204l14.167,19.971l-1.296,1.829c-1.933,2.746 -3.862,5.133 -5.796,7.154c-1.937,2.017 -3.991,3.8 -6.17,5.346c-4.48,3.175 -9.371,5.371 -14.68,6.587c-5.304,1.221 -10.612,1.404 -15.916,0.55c-5.304,-0.85 -10.404,-2.721 -15.292,-5.596c-4.888,-2.87 -9.096,-6.808 -12.642,-11.804c-3.541,-4.991 -5.854,-10.233 -6.941,-15.716c-1.088,-5.488 -1.134,-10.846 -0.142,-16.08c0.992,-5.233 2.954,-10.158 5.888,-14.787c2.929,-4.621 6.662,-8.542 11.195,-11.758c2.584,-1.83 5.321,-3.363 8.205,-4.584c2.883,-1.225 6.112,-2.246 9.679,-3.05l14.291,20.15Z" style="fill:#4f2e2d;fill-rule:nonzero;"/><path d="M1179.83,1235.1l2.892,-2.621c3.029,-2.738 4.787,-5.463 5.271,-8.184c0.483,-2.712 -0.338,-5.25 -2.463,-7.595c-2.125,-2.346 -4.562,-3.413 -7.312,-3.209c-2.75,0.217 -5.642,1.692 -8.667,4.429l-2.896,2.621l13.175,14.559Zm63.275,2.116l-19.1,17.279l-35.183,-9.454l20.542,22.7l-15.342,13.884l-53.404,-59.021l23.871,-21.604c3.287,-2.971 6.595,-5.088 9.925,-6.342c3.325,-1.254 6.541,-1.767 9.645,-1.538c3.1,0.23 6.046,1.08 8.842,2.534c2.792,1.462 5.317,3.441 7.583,5.95c4.067,4.487 6.275,9.108 6.634,13.858c0.362,4.754 -1.125,9.533 -4.454,14.35l40.441,7.404Z" style="fill:#4f2e2d;fill-rule:nonzero;"/><path d="M1258.77,1174.38l-26.196,-10.104l14.15,24.254l12.046,-14.15Zm15.537,6.017l-19.162,22.508l7.454,12.58l-14.304,16.8l-40.971,-74.663l14.646,-17.204l80.25,28.525l-14.304,16.804l-13.609,-5.35Z" style="fill:#4f2e2d;fill-rule:nonzero;"/><path d="M1283.74,1084.14l-13.829,20.725l11.063,7.38l12.595,-18.875l14.575,9.725l-12.595,18.879l25.987,17.346l-11.483,17.208l-66.204,-44.183l25.316,-37.934l14.575,9.729Z" style="fill:#4f2e2d;fill-rule:nonzero;"/><path d="M1308.11,1038.99l55.129,28.517l-9.504,18.379l-55.13,-28.521l-7.808,15.096l-15.571,-8.046l25.125,-48.575l15.567,8.054l-7.808,15.096Z" style="fill:#4f2e2d;fill-rule:nonzero;"/><path d="M747.295,366.101c67.092,31.596 83.917,76.646 104.984,147.692c0.783,2.65 4.354,3.108 5.783,0.729c2.525,-4.237 5.742,-11.112 7.904,-21.167c0.584,-2.712 4.1,-3.47 5.704,-1.216c49.671,70.258 53.855,160.166 -30.066,241.554c-2.296,2.229 -6.079,0.037 -5.288,-3.075c3.396,-13.208 8.863,-37.421 11.917,-66.325c0.287,-2.671 -2.704,-4.458 -4.938,-2.942c-8.008,5.438 -23.262,15.296 -36.791,21.438c-1.442,0.666 -3.146,0.171 -3.996,-1.167c-7.271,-11.321 -38.429,-63.654 -34.833,-122.396c0.17,-2.716 -2.98,-4.35 -5.121,-2.675c-18.384,14.413 -73.296,67.921 -43.792,175.575c0.821,3 -2.704,5.292 -5.092,3.279c-17.604,-14.75 -58.733,-56.416 -57.908,-122.937c4.208,-83.65 97.758,-170.883 87.05,-243.004c-0.371,-2.513 2.192,-4.442 4.483,-3.363" style="fill:#ef5342;fill-rule:nonzero;"/><path d="M229.119,743.616l120.804,-117.346c2.592,-2.529 6.738,-2.467 9.263,0.133l42.716,43.93c2.275,2.337 2.467,5.95 0.488,8.529c-39.479,51.612 -72.242,110.241 -69.413,160.233c0.488,8.788 -10.058,13.608 -16.229,7.304l-87.8,-89.329c-3.671,-3.733 -3.612,-9.775 0.171,-13.454" style="fill:#f4e6cd;fill-rule:nonzero;"/><path d="M493.692,501.327l29.154,37.795c3.034,3.959 2.525,9.576 -1.204,12.884c-11.112,9.854 -34.883,31.6 -61.954,60.137c-2.558,2.7 -6.85,2.721 -9.45,0.059l-37.125,-38.188c-2.529,-2.6 -2.471,-6.746 0.125,-9.275l66.337,-64.433c4.05,-3.929 10.68,-3.471 14.117,1.021" style="fill:#f4e6cd;fill-rule:nonzero;"/><path d="M390.457,571.525l612.105,629.475c5.475,5.617 4.475,15.433 -2.18,21.904l-8.954,8.704c-6.662,6.484 -16.496,7.209 -21.962,1.58l-612.109,-629.471c-2.133,-2.188 -1.745,-6.013 0.846,-8.542l23.696,-23.046c2.6,-2.516 6.425,-2.791 8.558,-0.604" style="fill:#4f2e2d;fill-rule:nonzero;"/><path d="M1323,743.616l-120.8,-117.346c-2.596,-2.529 -6.742,-2.467 -9.267,0.133l-42.716,43.93c-2.275,2.337 -2.467,5.95 -0.488,8.529c39.479,51.612 72.242,110.241 69.413,160.233c-0.488,8.788 10.058,13.608 16.233,7.304l87.796,-89.329c3.671,-3.733 3.608,-9.775 -0.171,-13.454" style="fill:#f4e6cd;fill-rule:nonzero;"/><path d="M1058.43,501.327l-29.154,37.795c-3.037,3.959 -2.529,9.576 1.2,12.884c11.117,9.854 34.883,31.6 61.954,60.137c2.559,2.7 6.854,2.721 9.454,0.059l37.125,-38.188c2.525,-2.6 2.471,-6.746 -0.125,-9.275l-66.337,-64.433c-4.05,-3.929 -10.683,-3.471 -14.117,1.021" style="fill:#f4e6cd;fill-rule:nonzero;"/><path d="M1161.66,571.525l-612.108,629.475c-5.475,5.617 -4.471,15.433 2.179,21.904l8.958,8.704c6.658,6.484 16.492,7.209 21.963,1.58l612.104,-629.471c2.133,-2.188 1.746,-6.013 -0.846,-8.542l-23.692,-23.046c-2.6,-2.516 -6.429,-2.791 -8.558,-0.604" style="fill:#4f2e2d;fill-rule:nonzero;"/></svg>