<?xml version="1.0" encoding="UTF-8" standalone="no"?><!DOCTYPE svg PUBLIC "-//W3C//DTD SVG 1.1//EN" "http://www.w3.org/Graphics/SVG/1.1/DTD/svg11.dtd"><svg width="100%" height="100%" viewBox="0 0 1553 1553" version="1.1" xmlns="http://www.w3.org/2000/svg" xmlns:xlink="http://www.w3.org/1999/xlink" xml:space="preserve" xmlns:serif="http://www.serif.com/" style="fill-rule:evenodd;clip-rule:evenodd;stroke-linejoin:round;stroke-miterlimit:2;"><path d="M776.1,0c-428.675,0 -776.1,347.425 -776.1,776.1c0,428.592 347.425,776.017 776.1,776.017c428.592,-0 776.017,-347.425 776.017,-776.017c-0,-428.675 -347.425,-776.1 -776.017,-776.1Zm0.009,71.069c389.338,-0 704.929,315.712 704.929,705.05c0,389.337 -315.591,704.929 -704.929,704.929c-389.337,-0 -705.05,-315.592 -705.05,-704.929c0,-389.338 315.713,-705.05 705.05,-705.05Z" style="fill:#fff;fill-rule:nonzero;"/><path d="M285.303,367.598l68.542,54.508l-18.171,22.846l-68.538,-54.508l-14.925,18.766l-19.35,-15.387l48.017,-60.379l19.35,15.387l-14.925,18.767Z" style="fill:#fff;fill-rule:nonzero;"/><path d="M320.451,291.251l60.325,44.683l-26.537,-71.587l18.175,-14.471l63.821,41.896l-30.03,-68.8l23.884,-19.017l43.733,108.725l-23.304,18.554l-57.783,-37.187l23.295,64.645l-23.304,18.555l-96.158,-66.98l23.883,-19.016Z" style="fill:#fff;fill-rule:nonzero;"/><path d="M509.69,293.672l-51.742,-99.663l25.905,-13.449l51.742,99.663l-25.905,13.449Z" style="fill:#fff;"/><path d="M552.21,269.565l-34.737,-106.783l27.758,-9.034l72.508,48.613l-21.242,-65.292l27.617,-8.983l34.742,106.787l-27.617,8.984l-72.508,-48.613l21.237,65.292l-27.758,9.029Z" style="fill:#fff;fill-rule:nonzero;"/><path d="M752.765,156.703l42.142,-0.683l-0.7,-43.334l29.183,-0.475l1.821,112.284l-29.191,0.47l-0.746,-46.308l-42.142,0.679l0.75,46.313l-29.187,0.475l-1.821,-112.284l29.187,-0.47l0.704,43.333Z" style="fill:#fff;fill-rule:nonzero;"/><path d="M912.085,199.155l-5.087,-39.283l-20.558,33.858l25.645,5.425Zm2.984,23.312l-40.796,-8.629l-10.596,17.7l-30.454,-6.441l65.058,-101.017l31.184,6.596l18.575,118.712l-30.455,-6.446l-2.516,-20.475Z" style="fill:#fff;fill-rule:nonzero;"/><path d="M1016.57,155.574l-14.325,73.691l53.159,-54.795l20.891,10.166l-10.304,75.646l49.142,-56.75l27.454,13.358l-79.262,86.317l-26.784,-13.033l8.654,-68.167l-48.295,48.879l-26.784,-13.033l19,-115.638l27.454,13.359Z" style="fill:#fff;fill-rule:nonzero;"/><path d="M1160.76,293.662l57.096,-12.33l27.504,23.296l-68.35,11.779l-1.058,76.596l-28.863,-24.45l2.5,-61.708l-31.475,37.158l-22.275,-18.871l72.588,-85.679l22.275,18.871l-29.942,35.338Z" style="fill:#fff;fill-rule:nonzero;"/><path d="M1284.2,395.509c-0.004,-4.096 -0.529,-7.762 -1.571,-11.012c-1.045,-3.246 -2.508,-6.025 -4.387,-8.338c-2.379,-2.925 -5.017,-4.75 -7.904,-5.467c-2.892,-0.72 -5.454,-0.17 -7.688,1.646c-1.541,1.254 -2.437,2.75 -2.679,4.488c-0.254,1.741 -0.133,3.658 0.358,5.754c0.492,2.1 1.234,4.308 2.234,6.633c0.996,2.325 1.933,4.663 2.825,7.013c3.554,9.4 4.662,17.487 3.333,24.266c-1.329,6.78 -5.304,12.867 -11.925,18.255c-4.467,3.637 -9.125,6.179 -13.967,7.62c-4.841,1.446 -9.725,1.775 -14.654,0.984c-4.933,-0.784 -9.816,-2.7 -14.658,-5.738c-4.838,-3.037 -9.421,-7.212 -13.746,-12.521c-8.962,-11.012 -13.996,-23.879 -15.1,-38.604l26.15,-5.15c-0.246,5.829 0.246,11 1.479,15.5c1.234,4.504 3.167,8.371 5.8,11.604c3.004,3.7 6.096,5.763 9.259,6.192c3.166,0.429 5.833,-0.229 7.987,-1.987c1.308,-1.067 2.254,-2.217 2.846,-3.467c0.587,-1.246 0.842,-2.738 0.775,-4.471c-0.071,-1.737 -0.463,-3.754 -1.183,-6.05c-0.717,-2.296 -1.655,-5.021 -2.809,-8.175c-1.462,-3.679 -2.775,-7.379 -3.946,-11.096c-1.175,-3.721 -1.725,-7.429 -1.662,-11.129c0.058,-3.7 0.946,-7.367 2.662,-11c1.713,-3.637 4.725,-7.208 9.038,-10.717c4.312,-3.512 8.8,-5.983 13.462,-7.408c4.663,-1.429 9.292,-1.871 13.9,-1.329c4.6,0.546 9.113,2.117 13.542,4.725c4.425,2.608 8.521,6.221 12.279,10.842c3.513,4.308 6.579,9.3 9.209,14.97c2.629,5.667 4.545,11.596 5.745,17.792l-25.004,5.375Z" style="fill:#fff;fill-rule:nonzero;"/><path d="M258.812,1073.1c0.546,-2.85 0.679,-5.471 0.391,-7.875c-0.291,-2.4 -0.933,-4.533 -1.933,-6.392c-1.262,-2.354 -2.85,-3.979 -4.767,-4.871c-1.912,-0.891 -3.77,-0.854 -5.57,0.113c-1.238,0.667 -2.063,1.583 -2.471,2.762c-0.409,1.18 -0.579,2.53 -0.521,4.051c0.058,1.529 0.279,3.166 0.658,4.92c0.384,1.75 0.725,3.505 1.025,5.263c1.209,7.016 0.892,12.796 -0.946,17.333c-1.837,4.542 -5.425,8.238 -10.758,11.1c-3.6,1.929 -7.179,3.067 -10.742,3.421c-3.566,0.354 -7.008,-0.075 -10.333,-1.283c-3.325,-1.213 -6.467,-3.205 -9.425,-5.971c-2.962,-2.763 -5.587,-6.288 -7.883,-10.567c-4.754,-8.871 -6.525,-18.5 -5.309,-28.896l18.888,-0.062c-0.954,4.021 -1.308,7.687 -1.058,10.983c0.25,3.3 1.079,6.254 2.475,8.858c1.595,2.975 3.466,4.83 5.612,5.555c2.146,0.725 4.088,0.625 5.825,-0.309c1.054,-0.566 1.867,-1.241 2.446,-2.029c0.575,-0.787 0.954,-1.792 1.142,-3.008c0.183,-1.217 0.183,-2.671 -0.009,-4.367c-0.187,-1.696 -0.475,-3.717 -0.854,-6.071c-0.521,-2.754 -0.942,-5.504 -1.254,-8.25c-0.313,-2.746 -0.2,-5.404 0.342,-7.966c0.541,-2.571 1.65,-5 3.333,-7.3c1.679,-2.3 4.258,-4.38 7.733,-6.242c3.475,-1.863 6.929,-2.975 10.367,-3.342c3.437,-0.366 6.721,-0.05 9.85,0.946c3.129,1 6.058,2.7 8.787,5.113c2.73,2.408 5.092,5.475 7.088,9.195c1.862,3.471 3.325,7.359 4.392,11.659c1.066,4.296 1.604,8.683 1.604,13.154l-18.125,0.375Z" style="fill:#fff;fill-rule:nonzero;"/><path d="M298.597,1098.16l-35.259,25.104c-1.891,1.35 -3.775,2.796 -5.65,4.346c-1.879,1.55 -3.362,3.263 -4.458,5.121c-1.096,1.858 -1.596,3.917 -1.496,6.179c0.1,2.263 1.15,4.8 3.15,7.609c2,2.808 4.042,4.616 6.129,5.42c2.084,0.809 4.192,1.009 6.334,0.613c2.133,-0.4 4.241,-1.229 6.321,-2.496c2.079,-1.267 4.066,-2.571 5.958,-3.917l35.258,-25.104l11.938,16.771l-37.579,26.758c-10.092,7.18 -19.1,10.117 -27.03,8.813c-7.929,-1.313 -15.304,-6.75 -22.12,-16.325c-6.817,-9.575 -9.555,-18.342 -8.217,-26.288c1.337,-7.95 7.05,-15.516 17.142,-22.7l37.579,-26.758l12,16.854Z" style="fill:#fff;fill-rule:nonzero;"/><path d="M323.047,1186.59l2.663,2.858c2.783,2.979 5.537,4.696 8.258,5.142c2.721,0.442 5.242,-0.413 7.562,-2.571c2.317,-2.158 3.346,-4.612 3.096,-7.358c-0.25,-2.75 -1.771,-5.617 -4.554,-8.6l-2.662,-2.859l-14.363,13.388Zm-1.183,63.292l-17.563,-18.842l8.938,-35.313l-22.396,20.871l-14.104,-15.137l58.225,-54.263l21.954,23.554c3.021,3.246 5.183,6.521 6.487,9.83c1.305,3.304 1.863,6.508 1.68,9.616c-0.188,3.104 -0.988,6.063 -2.405,8.879c-1.42,2.813 -3.362,5.371 -5.837,7.675c-4.429,4.125 -9.013,6.405 -13.758,6.834c-4.746,0.429 -9.55,-0.984 -14.417,-4.242l-6.804,40.538Z" style="fill:#fff;fill-rule:nonzero;"/><path d="M392.2,1205.57l-16.346,49.491l45.9,-24.77l17.25,14.425l-76.812,39.516l-12.634,-10.562l25.392,-82.525l17.25,14.425Z" style="fill:#fff;fill-rule:nonzero;"/><path d="M399.28,1312.39l44.783,-65.803l17.105,11.641l-44.783,65.803l-17.105,-11.641Z" style="fill:#fff;"/><path d="M484.396,1272.92l-6.288,51.742l40.134,-33.325l19.746,10.75l-67.534,53.866l-14.462,-7.875l8.654,-85.908l19.75,10.75Z" style="fill:#fff;fill-rule:nonzero;"/><path d="M558.505,1363.05l0.92,-28.063l-18.241,21.342l17.321,6.721Zm-0.571,16.65l-27.559,-10.692l-9.429,11.175l-20.571,-7.979l57.034,-63.25l21.062,8.171l-0.541,85.162l-20.567,-7.979l0.571,-14.608Z" style="fill:#fff;fill-rule:nonzero;"/><path d="M632.182,1333.68l-15.558,60.088l24.012,6.221l-4.391,16.962l-44.046,-11.404l19.954,-77.054l20.029,5.187Z" style="fill:#fff;fill-rule:nonzero;"/><path d="M726.278,1372.12c2.246,0.188 4.308,0.817 6.2,1.892c1.883,1.075 3.504,2.442 4.85,4.104c1.346,1.667 2.358,3.517 3.037,5.55c0.68,2.034 0.93,4.138 0.75,6.313c-0.191,2.312 -0.791,4.437 -1.8,6.362c-1.004,1.929 -2.308,3.592 -3.904,4.975c-1.6,1.388 -3.433,2.438 -5.504,3.15c-2.071,0.713 -4.262,0.967 -6.579,0.775c-2.246,-0.183 -4.313,-0.791 -6.204,-1.833c-1.892,-1.038 -3.513,-2.358 -4.863,-3.95c-1.35,-1.596 -2.383,-3.429 -3.096,-5.5c-0.712,-2.071 -0.97,-4.263 -0.779,-6.579c0.192,-2.317 0.792,-4.434 1.796,-6.367c1.008,-1.929 2.308,-3.587 3.908,-4.975c1.596,-1.383 3.446,-2.433 5.555,-3.137c2.108,-0.709 4.316,-0.971 6.633,-0.78" style="fill:#fff;fill-rule:nonzero;"/><path d="M832.723,1412.9l4.517,-0.446c5.179,-0.517 8.825,-1.55 10.933,-3.108c2.109,-1.554 3.021,-3.804 2.725,-6.742c-0.291,-2.942 -1.625,-4.967 -4,-6.075c-2.375,-1.104 -6.15,-1.404 -11.333,-0.887l-4.517,0.454l1.675,16.804Zm-3.204,-32.146l3.788,-0.375c6.441,-0.642 9.404,-3.517 8.896,-8.629c-0.509,-5.113 -3.988,-7.35 -10.43,-6.704l-3.779,0.371l1.525,15.337Zm-23.683,-29.042l30.675,-3.054c7.279,-0.725 12.987,0.475 17.121,3.6c4.129,3.125 6.521,7.979 7.175,14.563c0.4,3.991 0.008,7.371 -1.163,10.141c-1.175,2.767 -3.141,5.209 -5.9,7.325c2.996,0.267 5.584,0.875 7.763,1.825c2.183,0.95 4.004,2.2 5.471,3.755c1.458,1.55 2.575,3.345 3.345,5.395c0.771,2.042 1.271,4.255 1.513,6.634c0.371,3.716 0.046,7.071 -0.963,10.071c-1.012,3 -2.591,5.595 -4.737,7.791c-2.154,2.196 -4.858,3.95 -8.125,5.263c-3.263,1.321 -6.996,2.183 -11.2,2.6l-33.092,3.296l-7.883,-79.205Z" style="fill:#fff;fill-rule:nonzero;"/><path d="M894.381,1339.81l9.875,42.138c0.529,2.262 1.154,4.554 1.884,6.879c0.725,2.321 1.737,4.346 3.05,6.062c1.3,1.717 3.02,2.963 5.154,3.725c2.129,0.767 4.875,0.755 8.233,-0.033c3.354,-0.787 5.8,-1.992 7.333,-3.617c1.538,-1.62 2.525,-3.5 2.967,-5.625c0.442,-2.129 0.471,-4.395 0.088,-6.8c-0.384,-2.404 -0.838,-4.737 -1.367,-7l-9.875,-42.137l20.042,-4.696l10.52,44.913c2.83,12.062 2.134,21.512 -2.083,28.354c-4.212,6.846 -12.042,11.604 -23.483,14.287c-11.442,2.679 -20.592,1.9 -27.442,-2.354c-6.85,-4.246 -11.687,-12.4 -14.517,-24.462l-10.525,-44.913l20.146,-4.721Z" style="fill:#fff;fill-rule:nonzero;"/><path d="M1001.67,1328.3c-2.75,-0.925 -5.334,-1.404 -7.75,-1.441c-2.421,-0.034 -4.621,0.316 -6.596,1.058c-2.504,0.938 -4.325,2.296 -5.467,4.075c-1.133,1.775 -1.346,3.625 -0.633,5.533c0.496,1.317 1.296,2.259 2.408,2.821c1.113,0.559 2.429,0.913 3.946,1.063c1.517,0.141 3.175,0.146 4.963,-0c1.783,-0.142 3.57,-0.246 5.35,-0.313c7.116,-0.254 12.8,0.834 17.054,3.263c4.25,2.429 7.437,6.475 9.554,12.146c1.433,3.825 2.083,7.52 1.958,11.104c-0.125,3.579 -1.012,6.933 -2.658,10.066c-1.646,3.134 -4.038,5.98 -7.171,8.542c-3.142,2.567 -6.983,4.696 -11.529,6.4c-9.425,3.521 -19.208,3.992 -29.346,1.396l2.463,-18.733c3.862,1.487 7.441,2.329 10.745,2.52c3.305,0.192 6.342,-0.233 9.109,-1.266c3.166,-1.184 5.25,-2.792 6.258,-4.821c1.004,-2.025 1.163,-3.963 0.471,-5.813c-0.421,-1.116 -0.979,-2.016 -1.683,-2.691c-0.705,-0.675 -1.646,-1.188 -2.83,-1.538c-1.179,-0.346 -2.625,-0.537 -4.329,-0.579c-1.704,-0.037 -3.75,-0.025 -6.129,0.042c-2.8,0.146 -5.583,0.191 -8.346,0.133c-2.762,-0.058 -5.379,-0.525 -7.85,-1.404c-2.471,-0.879 -4.733,-2.304 -6.783,-4.279c-2.058,-1.975 -3.775,-4.804 -5.154,-8.5c-1.379,-3.692 -2.021,-7.263 -1.925,-10.717c0.1,-3.458 0.85,-6.667 2.258,-9.637c1.404,-2.967 3.483,-5.642 6.238,-8.025c2.758,-2.384 6.108,-4.313 10.062,-5.792c3.692,-1.379 7.742,-2.313 12.142,-2.796c4.404,-0.479 8.821,-0.425 13.25,0.171l-2.05,18.012Z" style="fill:#fff;fill-rule:nonzero;"/><path d="M1046.13,1319.41l26.404,-13.975l-14.371,-27.15l18.284,-9.679l37.241,70.342l-18.287,9.683l-15.358,-29.016l-26.405,13.975l15.359,29.016l-18.288,9.679l-37.237,-70.345l18.287,-9.68l14.371,27.15Z" style="fill:#fff;fill-rule:nonzero;"/><path d="M1148.9,1250.13c-7.284,-1.996 -13.8,-0.959 -19.534,3.112c-2.529,1.792 -4.541,3.913 -6.046,6.35c-1.5,2.446 -2.462,5.013 -2.895,7.688c-0.43,2.679 -0.317,5.425 0.341,8.237c0.654,2.813 1.879,5.479 3.671,8.009c1.833,2.583 3.967,4.65 6.404,6.2c2.438,1.55 5.013,2.566 7.734,3.054c2.72,0.491 5.466,0.441 8.241,-0.15c2.775,-0.584 5.396,-1.759 7.867,-3.509c5.396,-3.825 8.617,-9.562 9.667,-17.204l14.166,19.971l-1.296,1.829c-1.933,2.746 -3.862,5.134 -5.795,7.154c-1.938,2.017 -3.992,3.8 -6.171,5.346c-4.479,3.175 -9.371,5.371 -14.679,6.588c-5.305,1.221 -10.613,1.404 -15.917,0.55c-5.304,-0.85 -10.404,-2.721 -15.292,-5.596c-4.887,-2.871 -9.096,-6.808 -12.641,-11.804c-3.542,-4.992 -5.855,-10.234 -6.942,-15.717c-1.088,-5.487 -1.133,-10.846 -0.142,-16.079c0.992,-5.233 2.954,-10.158 5.888,-14.788c2.929,-4.62 6.662,-8.541 11.196,-11.758c2.583,-1.829 5.32,-3.362 8.204,-4.583c2.883,-1.225 6.112,-2.246 9.679,-3.05l14.292,20.15Z" style="fill:#fff;fill-rule:nonzero;"/><path d="M1179.83,1235.12l2.892,-2.621c3.029,-2.737 4.788,-5.462 5.271,-8.183c0.483,-2.713 -0.338,-5.25 -2.463,-7.596c-2.125,-2.346 -4.562,-3.413 -7.312,-3.208c-2.75,0.216 -5.642,1.691 -8.667,4.429l-2.896,2.621l13.175,14.558Zm63.275,2.117l-19.1,17.279l-35.183,-9.454l20.542,22.7l-15.342,13.883l-53.404,-59.021l23.871,-21.604c3.287,-2.971 6.596,-5.088 9.925,-6.342c3.325,-1.254 6.541,-1.766 9.646,-1.537c3.1,0.229 6.045,1.079 8.841,2.533c2.792,1.463 5.317,3.442 7.584,5.95c4.066,4.488 6.275,9.108 6.633,13.858c0.362,4.755 -1.125,9.534 -4.454,14.35l40.441,7.405Z" style="fill:#fff;fill-rule:nonzero;"/><path d="M1258.77,1174.39l-26.196,-10.104l14.15,24.254l12.046,-14.15Zm15.538,6.017l-19.163,22.508l7.454,12.579l-14.304,16.8l-40.971,-74.662l14.646,-17.205l80.25,28.525l-14.304,16.805l-13.608,-5.35Z" style="fill:#fff;fill-rule:nonzero;"/><path d="M1283.74,1084.16l-13.829,20.725l11.063,7.379l12.596,-18.875l14.575,9.725l-12.596,18.879l25.987,17.346l-11.483,17.208l-66.204,-44.183l25.316,-37.933l14.575,9.729Z" style="fill:#fff;fill-rule:nonzero;"/><path d="M1308.11,1039.01l55.129,28.516l-9.504,18.38l-55.129,-28.521l-7.809,15.096l-15.571,-8.046l25.125,-48.575l15.567,8.054l-7.808,15.096Z" style="fill:#fff;fill-rule:nonzero;"/><path d="M747.295,366.119c67.091,31.596 83.916,76.646 104.983,147.691c0.783,2.65 4.354,3.109 5.783,0.73c2.525,-4.238 5.742,-11.113 7.904,-21.167c0.584,-2.713 4.1,-3.471 5.705,-1.217c49.67,70.259 53.854,160.167 -30.067,241.554c-2.296,2.23 -6.079,0.038 -5.288,-3.075c3.396,-13.208 8.863,-37.42 11.917,-66.325c0.288,-2.67 -2.704,-4.458 -4.937,-2.941c-8.009,5.437 -23.263,15.296 -36.792,21.437c-1.442,0.667 -3.146,0.171 -3.996,-1.166c-7.271,-11.321 -38.429,-63.655 -34.833,-122.396c0.171,-2.717 -2.979,-4.35 -5.121,-2.675c-18.383,14.412 -73.296,67.921 -43.792,175.575c0.821,3 -2.704,5.291 -5.091,3.279c-17.605,-14.75 -58.734,-56.417 -57.909,-122.938c4.209,-83.65 97.759,-170.883 87.05,-243.004c-0.371,-2.512 2.192,-4.441 4.484,-3.362" style="fill:#fff;fill-rule:nonzero;"/><path d="M229.118,743.633l120.805,-117.346c2.591,-2.529 6.737,-2.466 9.262,0.134l42.717,43.929c2.275,2.338 2.466,5.95 0.487,8.529c-39.479,51.613 -72.241,110.242 -69.412,160.234c0.487,8.787 -10.059,13.608 -16.229,7.304l-87.8,-89.329c-3.671,-3.734 -3.613,-9.775 0.17,-13.455" style="fill:#fff;fill-rule:nonzero;"/><path d="M493.691,501.344l29.154,37.796c3.034,3.958 2.525,9.575 -1.204,12.883c-11.112,9.854 -34.883,31.6 -61.954,60.138c-2.558,2.7 -6.85,2.721 -9.45,0.058l-37.125,-38.187c-2.529,-2.6 -2.471,-6.746 0.125,-9.275l66.338,-64.434c4.05,-3.929 10.679,-3.471 14.116,1.021" style="fill:#fff;fill-rule:nonzero;"/><path d="M390.457,571.542l612.104,629.475c5.475,5.617 4.475,15.434 -2.179,21.905l-8.955,8.704c-6.662,6.483 -16.495,7.208 -21.962,1.579l-612.108,-629.471c-2.134,-2.187 -1.746,-6.012 0.846,-8.542l23.695,-23.045c2.6,-2.517 6.425,-2.792 8.559,-0.605" style="fill:#fff;fill-rule:nonzero;"/><path d="M1323,743.633l-120.8,-117.346c-2.595,-2.529 -6.741,-2.466 -9.266,0.134l-42.717,43.929c-2.275,2.338 -2.467,5.95 -0.487,8.529c39.479,51.613 72.241,110.242 69.412,160.234c-0.487,8.787 10.058,13.608 16.233,7.304l87.796,-89.329c3.671,-3.734 3.609,-9.775 -0.171,-13.455" style="fill:#fff;fill-rule:nonzero;"/><path d="M1058.43,501.344l-29.155,37.796c-3.037,3.958 -2.529,9.575 1.2,12.883c11.117,9.854 34.884,31.6 61.955,60.138c2.558,2.7 6.854,2.721 9.454,0.058l37.125,-38.187c2.525,-2.6 2.471,-6.746 -0.125,-9.275l-66.338,-64.434c-4.05,-3.929 -10.683,-3.471 -14.116,1.021" style="fill:#fff;fill-rule:nonzero;"/><path d="M1161.66,571.542l-612.108,629.475c-5.475,5.617 -4.471,15.434 2.179,21.905l8.958,8.704c6.659,6.483 16.492,7.208 21.963,1.579l612.104,-629.471c2.133,-2.187 1.746,-6.012 -0.846,-8.542l-23.692,-23.045c-2.6,-2.517 -6.429,-2.792 -8.558,-0.605" style="fill:#fff;fill-rule:nonzero;"/></svg>